<?xml version="1.0" encoding="utf-8" standalone="no"?>
<!DOCTYPE svg PUBLIC "-//W3C//DTD SVG 1.1//EN"
  "http://www.w3.org/Graphics/SVG/1.1/DTD/svg11.dtd">
<svg xmlns:xlink="http://www.w3.org/1999/xlink" width="348.340625pt" height="211.07625pt" viewBox="0 0 348.340625 211.07625" xmlns="http://www.w3.org/2000/svg" version="1.1">
 <metadata>
  <rdf:RDF xmlns:dc="http://purl.org/dc/elements/1.1/" xmlns:cc="http://creativecommons.org/ns#" xmlns:rdf="http://www.w3.org/1999/02/22-rdf-syntax-ns#">
   <cc:Work>
    <dc:type rdf:resource="http://purl.org/dc/dcmitype/StillImage"/>
    <dc:date>2025-09-30T03:04:06.726622</dc:date>
    <dc:format>image/svg+xml</dc:format>
    <dc:creator>
     <cc:Agent>
      <dc:title>Matplotlib v3.9.2, https://matplotlib.org/</dc:title>
     </cc:Agent>
    </dc:creator>
   </cc:Work>
  </rdf:RDF>
 </metadata>
 <defs>
  <style type="text/css">*{stroke-linejoin: round; stroke-linecap: butt}</style>
 </defs>
 <g id="figure_1">
  <g id="patch_1">
   <path d="M 0 211.07625 
L 348.340625 211.07625 
L 348.340625 0 
L 0 0 
z
" style="fill: #ffffff"/>
  </g>
  <g id="axes_1">
   <g id="patch_2">
    <path d="M 34.240625 173.52 
L 341.140625 173.52 
L 341.140625 7.2 
L 34.240625 7.2 
z
" style="fill: #ffffff"/>
   </g>
   <g id="matplotlib.axis_1">
    <g id="xtick_1">
     <g id="line2d_1">
      <path d="M 72.652735 173.52 
L 72.652735 7.2 
" clip-path="url(#p538b349b6d)" style="fill: none; stroke: #b0b0b0; stroke-width: 0.8; stroke-linecap: square"/>
     </g>
     <g id="line2d_2">
      <defs>
       <path id="mf892b8cf66" d="M 0 0 
L 0 3.5 
" style="stroke: #000000; stroke-width: 0.8"/>
      </defs>
      <g>
       <use xlink:href="#mf892b8cf66" x="72.652735" y="173.52" style="stroke: #000000; stroke-width: 0.8"/>
      </g>
     </g>
     <g id="text_1">
      <text style="font: 10px 'DejaVu Sans', 'Bitstream Vera Sans', 'Computer Modern Sans Serif', 'Lucida Grande', 'Verdana', 'Geneva', 'Lucid', 'Arial', 'Helvetica', 'Avant Garde', sans-serif; text-anchor: middle" x="72.652735" y="188.118438" transform="rotate(-0 72.652735 188.118438)">0.3</text>
     </g>
    </g>
    <g id="xtick_2">
     <g id="line2d_3">
      <path d="M 111.251223 173.52 
L 111.251223 7.2 
" clip-path="url(#p538b349b6d)" style="fill: none; stroke: #b0b0b0; stroke-width: 0.8; stroke-linecap: square"/>
     </g>
     <g id="line2d_4">
      <g>
       <use xlink:href="#mf892b8cf66" x="111.251223" y="173.52" style="stroke: #000000; stroke-width: 0.8"/>
      </g>
     </g>
     <g id="text_2">
      <text style="font: 10px 'DejaVu Sans', 'Bitstream Vera Sans', 'Computer Modern Sans Serif', 'Lucida Grande', 'Verdana', 'Geneva', 'Lucid', 'Arial', 'Helvetica', 'Avant Garde', sans-serif; text-anchor: middle" x="111.251223" y="188.118438" transform="rotate(-0 111.251223 188.118438)">0.4</text>
     </g>
    </g>
    <g id="xtick_3">
     <g id="line2d_5">
      <path d="M 141.190536 173.52 
L 141.190536 7.2 
" clip-path="url(#p538b349b6d)" style="fill: none; stroke: #b0b0b0; stroke-width: 0.8; stroke-linecap: square"/>
     </g>
     <g id="line2d_6">
      <g>
       <use xlink:href="#mf892b8cf66" x="141.190536" y="173.52" style="stroke: #000000; stroke-width: 0.8"/>
      </g>
     </g>
     <g id="text_3">
      <text style="font: 10px 'DejaVu Sans', 'Bitstream Vera Sans', 'Computer Modern Sans Serif', 'Lucida Grande', 'Verdana', 'Geneva', 'Lucid', 'Arial', 'Helvetica', 'Avant Garde', sans-serif; text-anchor: middle" x="141.190536" y="188.118438" transform="rotate(-0 141.190536 188.118438)">0.5</text>
     </g>
    </g>
    <g id="xtick_4">
     <g id="line2d_7">
      <path d="M 165.652735 173.52 
L 165.652735 7.2 
" clip-path="url(#p538b349b6d)" style="fill: none; stroke: #b0b0b0; stroke-width: 0.8; stroke-linecap: square"/>
     </g>
     <g id="line2d_8">
      <g>
       <use xlink:href="#mf892b8cf66" x="165.652735" y="173.52" style="stroke: #000000; stroke-width: 0.8"/>
      </g>
     </g>
     <g id="text_4">
      <text style="font: 10px 'DejaVu Sans', 'Bitstream Vera Sans', 'Computer Modern Sans Serif', 'Lucida Grande', 'Verdana', 'Geneva', 'Lucid', 'Arial', 'Helvetica', 'Avant Garde', sans-serif; text-anchor: middle" x="165.652735" y="188.118438" transform="rotate(-0 165.652735 188.118438)">0.6</text>
     </g>
    </g>
    <g id="xtick_5">
     <g id="line2d_9">
      <path d="M 204.251223 173.52 
L 204.251223 7.2 
" clip-path="url(#p538b349b6d)" style="fill: none; stroke: #b0b0b0; stroke-width: 0.8; stroke-linecap: square"/>
     </g>
     <g id="line2d_10">
      <g>
       <use xlink:href="#mf892b8cf66" x="204.251223" y="173.52" style="stroke: #000000; stroke-width: 0.8"/>
      </g>
     </g>
     <g id="text_5">
      <text style="font: 10px 'DejaVu Sans', 'Bitstream Vera Sans', 'Computer Modern Sans Serif', 'Lucida Grande', 'Verdana', 'Geneva', 'Lucid', 'Arial', 'Helvetica', 'Avant Garde', sans-serif; text-anchor: middle" x="204.251223" y="188.118438" transform="rotate(-0 204.251223 188.118438)">0.8</text>
     </g>
    </g>
    <g id="xtick_6">
     <g id="line2d_11">
      <path d="M 234.190536 173.52 
L 234.190536 7.2 
" clip-path="url(#p538b349b6d)" style="fill: none; stroke: #b0b0b0; stroke-width: 0.8; stroke-linecap: square"/>
     </g>
     <g id="line2d_12">
      <g>
       <use xlink:href="#mf892b8cf66" x="234.190536" y="173.52" style="stroke: #000000; stroke-width: 0.8"/>
      </g>
     </g>
     <g id="text_6">
      <text style="font: 10px 'DejaVu Sans', 'Bitstream Vera Sans', 'Computer Modern Sans Serif', 'Lucida Grande', 'Verdana', 'Geneva', 'Lucid', 'Arial', 'Helvetica', 'Avant Garde', sans-serif; text-anchor: middle" x="234.190536" y="188.118438" transform="rotate(-0 234.190536 188.118438)">1.0</text>
     </g>
    </g>
    <g id="xtick_7">
     <g id="line2d_13">
      <path d="M 258.652735 173.52 
L 258.652735 7.2 
" clip-path="url(#p538b349b6d)" style="fill: none; stroke: #b0b0b0; stroke-width: 0.8; stroke-linecap: square"/>
     </g>
     <g id="line2d_14">
      <g>
       <use xlink:href="#mf892b8cf66" x="258.652735" y="173.52" style="stroke: #000000; stroke-width: 0.8"/>
      </g>
     </g>
     <g id="text_7">
      <text style="font: 10px 'DejaVu Sans', 'Bitstream Vera Sans', 'Computer Modern Sans Serif', 'Lucida Grande', 'Verdana', 'Geneva', 'Lucid', 'Arial', 'Helvetica', 'Avant Garde', sans-serif; text-anchor: middle" x="258.652735" y="188.118438" transform="rotate(-0 258.652735 188.118438)">1.2</text>
     </g>
    </g>
    <g id="xtick_8">
     <g id="line2d_15">
      <path d="M 297.251223 173.52 
L 297.251223 7.2 
" clip-path="url(#p538b349b6d)" style="fill: none; stroke: #b0b0b0; stroke-width: 0.8; stroke-linecap: square"/>
     </g>
     <g id="line2d_16">
      <g>
       <use xlink:href="#mf892b8cf66" x="297.251223" y="173.52" style="stroke: #000000; stroke-width: 0.8"/>
      </g>
     </g>
     <g id="text_8">
      <text style="font: 10px 'DejaVu Sans', 'Bitstream Vera Sans', 'Computer Modern Sans Serif', 'Lucida Grande', 'Verdana', 'Geneva', 'Lucid', 'Arial', 'Helvetica', 'Avant Garde', sans-serif; text-anchor: middle" x="297.251223" y="188.118438" transform="rotate(-0 297.251223 188.118438)">1.6</text>
     </g>
    </g>
    <g id="xtick_9">
     <g id="line2d_17">
      <path d="M 327.190536 173.52 
L 327.190536 7.2 
" clip-path="url(#p538b349b6d)" style="fill: none; stroke: #b0b0b0; stroke-width: 0.8; stroke-linecap: square"/>
     </g>
     <g id="line2d_18">
      <g>
       <use xlink:href="#mf892b8cf66" x="327.190536" y="173.52" style="stroke: #000000; stroke-width: 0.8"/>
      </g>
     </g>
     <g id="text_9">
      <text style="font: 10px 'DejaVu Sans', 'Bitstream Vera Sans', 'Computer Modern Sans Serif', 'Lucida Grande', 'Verdana', 'Geneva', 'Lucid', 'Arial', 'Helvetica', 'Avant Garde', sans-serif; text-anchor: middle" x="327.190536" y="188.118438" transform="rotate(-0 327.190536 188.118438)">2.0</text>
     </g>
    </g>
    <g id="xtick_10">
     <g id="line2d_19">
      <path d="M 186.33523 173.52 
L 186.33523 7.2 
" clip-path="url(#p538b349b6d)" style="fill: none; stroke: #b0b0b0; stroke-width: 0.2; stroke-linecap: square"/>
     </g>
     <g id="line2d_20">
      <defs>
       <path id="m4125c2c264" d="M 0 0 
L 0 2 
" style="stroke: #000000; stroke-width: 0.6"/>
      </defs>
      <g>
       <use xlink:href="#m4125c2c264" x="186.33523" y="173.52" style="stroke: #000000; stroke-width: 0.6"/>
      </g>
     </g>
    </g>
    <g id="xtick_11">
     <g id="line2d_21">
      <path d="M 220.054248 173.52 
L 220.054248 7.2 
" clip-path="url(#p538b349b6d)" style="fill: none; stroke: #b0b0b0; stroke-width: 0.2; stroke-linecap: square"/>
     </g>
     <g id="line2d_22">
      <g>
       <use xlink:href="#m4125c2c264" x="220.054248" y="173.52" style="stroke: #000000; stroke-width: 0.6"/>
      </g>
     </g>
    </g>
    <g id="text_10">
     <text style="font: 10px 'DejaVu Sans', 'Bitstream Vera Sans', 'Computer Modern Sans Serif', 'Lucida Grande', 'Verdana', 'Geneva', 'Lucid', 'Arial', 'Helvetica', 'Avant Garde', sans-serif; text-anchor: middle" x="187.690625" y="201.796563" transform="rotate(-0 187.690625 201.796563)">block size, us</text>
    </g>
   </g>
   <g id="matplotlib.axis_2">
    <g id="ytick_1">
     <g id="line2d_23">
      <path d="M 34.240625 173.52 
L 341.140625 173.52 
" clip-path="url(#p538b349b6d)" style="fill: none; stroke: #b0b0b0; stroke-width: 0.8; stroke-linecap: square"/>
     </g>
     <g id="line2d_24">
      <defs>
       <path id="m409bfbd58c" d="M 0 0 
L -3.5 0 
" style="stroke: #000000; stroke-width: 0.8"/>
      </defs>
      <g>
       <use xlink:href="#m409bfbd58c" x="34.240625" y="173.52" style="stroke: #000000; stroke-width: 0.8"/>
      </g>
     </g>
     <g id="text_11">
      <text style="font: 10px 'DejaVu Sans', 'Bitstream Vera Sans', 'Computer Modern Sans Serif', 'Lucida Grande', 'Verdana', 'Geneva', 'Lucid', 'Arial', 'Helvetica', 'Avant Garde', sans-serif; text-anchor: end" x="27.240625" y="177.319219" transform="rotate(-0 27.240625 177.319219)">0</text>
     </g>
    </g>
    <g id="ytick_2">
     <g id="line2d_25">
      <path d="M 34.240625 147.932308 
L 341.140625 147.932308 
" clip-path="url(#p538b349b6d)" style="fill: none; stroke: #b0b0b0; stroke-width: 0.8; stroke-linecap: square"/>
     </g>
     <g id="line2d_26">
      <g>
       <use xlink:href="#m409bfbd58c" x="34.240625" y="147.932308" style="stroke: #000000; stroke-width: 0.8"/>
      </g>
     </g>
     <g id="text_12">
      <text style="font: 10px 'DejaVu Sans', 'Bitstream Vera Sans', 'Computer Modern Sans Serif', 'Lucida Grande', 'Verdana', 'Geneva', 'Lucid', 'Arial', 'Helvetica', 'Avant Garde', sans-serif; text-anchor: end" x="27.240625" y="151.731526" transform="rotate(-0 27.240625 151.731526)">1</text>
     </g>
    </g>
    <g id="ytick_3">
     <g id="line2d_27">
      <path d="M 34.240625 122.344615 
L 341.140625 122.344615 
" clip-path="url(#p538b349b6d)" style="fill: none; stroke: #b0b0b0; stroke-width: 0.8; stroke-linecap: square"/>
     </g>
     <g id="line2d_28">
      <g>
       <use xlink:href="#m409bfbd58c" x="34.240625" y="122.344615" style="stroke: #000000; stroke-width: 0.8"/>
      </g>
     </g>
     <g id="text_13">
      <text style="font: 10px 'DejaVu Sans', 'Bitstream Vera Sans', 'Computer Modern Sans Serif', 'Lucida Grande', 'Verdana', 'Geneva', 'Lucid', 'Arial', 'Helvetica', 'Avant Garde', sans-serif; text-anchor: end" x="27.240625" y="126.143834" transform="rotate(-0 27.240625 126.143834)">2</text>
     </g>
    </g>
    <g id="ytick_4">
     <g id="line2d_29">
      <path d="M 34.240625 96.756923 
L 341.140625 96.756923 
" clip-path="url(#p538b349b6d)" style="fill: none; stroke: #b0b0b0; stroke-width: 0.8; stroke-linecap: square"/>
     </g>
     <g id="line2d_30">
      <g>
       <use xlink:href="#m409bfbd58c" x="34.240625" y="96.756923" style="stroke: #000000; stroke-width: 0.8"/>
      </g>
     </g>
     <g id="text_14">
      <text style="font: 10px 'DejaVu Sans', 'Bitstream Vera Sans', 'Computer Modern Sans Serif', 'Lucida Grande', 'Verdana', 'Geneva', 'Lucid', 'Arial', 'Helvetica', 'Avant Garde', sans-serif; text-anchor: end" x="27.240625" y="100.556142" transform="rotate(-0 27.240625 100.556142)">3</text>
     </g>
    </g>
    <g id="ytick_5">
     <g id="line2d_31">
      <path d="M 34.240625 71.169231 
L 341.140625 71.169231 
" clip-path="url(#p538b349b6d)" style="fill: none; stroke: #b0b0b0; stroke-width: 0.8; stroke-linecap: square"/>
     </g>
     <g id="line2d_32">
      <g>
       <use xlink:href="#m409bfbd58c" x="34.240625" y="71.169231" style="stroke: #000000; stroke-width: 0.8"/>
      </g>
     </g>
     <g id="text_15">
      <text style="font: 10px 'DejaVu Sans', 'Bitstream Vera Sans', 'Computer Modern Sans Serif', 'Lucida Grande', 'Verdana', 'Geneva', 'Lucid', 'Arial', 'Helvetica', 'Avant Garde', sans-serif; text-anchor: end" x="27.240625" y="74.96845" transform="rotate(-0 27.240625 74.96845)">4</text>
     </g>
    </g>
    <g id="ytick_6">
     <g id="line2d_33">
      <path d="M 34.240625 45.581538 
L 341.140625 45.581538 
" clip-path="url(#p538b349b6d)" style="fill: none; stroke: #b0b0b0; stroke-width: 0.8; stroke-linecap: square"/>
     </g>
     <g id="line2d_34">
      <g>
       <use xlink:href="#m409bfbd58c" x="34.240625" y="45.581538" style="stroke: #000000; stroke-width: 0.8"/>
      </g>
     </g>
     <g id="text_16">
      <text style="font: 10px 'DejaVu Sans', 'Bitstream Vera Sans', 'Computer Modern Sans Serif', 'Lucida Grande', 'Verdana', 'Geneva', 'Lucid', 'Arial', 'Helvetica', 'Avant Garde', sans-serif; text-anchor: end" x="27.240625" y="49.380757" transform="rotate(-0 27.240625 49.380757)">5</text>
     </g>
    </g>
    <g id="ytick_7">
     <g id="line2d_35">
      <path d="M 34.240625 19.993846 
L 341.140625 19.993846 
" clip-path="url(#p538b349b6d)" style="fill: none; stroke: #b0b0b0; stroke-width: 0.8; stroke-linecap: square"/>
     </g>
     <g id="line2d_36">
      <g>
       <use xlink:href="#m409bfbd58c" x="34.240625" y="19.993846" style="stroke: #000000; stroke-width: 0.8"/>
      </g>
     </g>
     <g id="text_17">
      <text style="font: 10px 'DejaVu Sans', 'Bitstream Vera Sans', 'Computer Modern Sans Serif', 'Lucida Grande', 'Verdana', 'Geneva', 'Lucid', 'Arial', 'Helvetica', 'Avant Garde', sans-serif; text-anchor: end" x="27.240625" y="23.793065" transform="rotate(-0 27.240625 23.793065)">6</text>
     </g>
    </g>
    <g id="ytick_8">
     <g id="line2d_37">
      <path d="M 34.240625 160.726154 
L 341.140625 160.726154 
" clip-path="url(#p538b349b6d)" style="fill: none; stroke: #b0b0b0; stroke-width: 0.2; stroke-linecap: square"/>
     </g>
     <g id="line2d_38">
      <defs>
       <path id="me78f863667" d="M 0 0 
L -2 0 
" style="stroke: #000000; stroke-width: 0.6"/>
      </defs>
      <g>
       <use xlink:href="#me78f863667" x="34.240625" y="160.726154" style="stroke: #000000; stroke-width: 0.6"/>
      </g>
     </g>
    </g>
    <g id="ytick_9">
     <g id="line2d_39">
      <path d="M 34.240625 135.138462 
L 341.140625 135.138462 
" clip-path="url(#p538b349b6d)" style="fill: none; stroke: #b0b0b0; stroke-width: 0.2; stroke-linecap: square"/>
     </g>
     <g id="line2d_40">
      <g>
       <use xlink:href="#me78f863667" x="34.240625" y="135.138462" style="stroke: #000000; stroke-width: 0.6"/>
      </g>
     </g>
    </g>
    <g id="ytick_10">
     <g id="line2d_41">
      <path d="M 34.240625 109.550769 
L 341.140625 109.550769 
" clip-path="url(#p538b349b6d)" style="fill: none; stroke: #b0b0b0; stroke-width: 0.2; stroke-linecap: square"/>
     </g>
     <g id="line2d_42">
      <g>
       <use xlink:href="#me78f863667" x="34.240625" y="109.550769" style="stroke: #000000; stroke-width: 0.6"/>
      </g>
     </g>
    </g>
    <g id="ytick_11">
     <g id="line2d_43">
      <path d="M 34.240625 83.963077 
L 341.140625 83.963077 
" clip-path="url(#p538b349b6d)" style="fill: none; stroke: #b0b0b0; stroke-width: 0.2; stroke-linecap: square"/>
     </g>
     <g id="line2d_44">
      <g>
       <use xlink:href="#me78f863667" x="34.240625" y="83.963077" style="stroke: #000000; stroke-width: 0.6"/>
      </g>
     </g>
    </g>
    <g id="ytick_12">
     <g id="line2d_45">
      <path d="M 34.240625 58.375385 
L 341.140625 58.375385 
" clip-path="url(#p538b349b6d)" style="fill: none; stroke: #b0b0b0; stroke-width: 0.2; stroke-linecap: square"/>
     </g>
     <g id="line2d_46">
      <g>
       <use xlink:href="#me78f863667" x="34.240625" y="58.375385" style="stroke: #000000; stroke-width: 0.6"/>
      </g>
     </g>
    </g>
    <g id="ytick_13">
     <g id="line2d_47">
      <path d="M 34.240625 32.787692 
L 341.140625 32.787692 
" clip-path="url(#p538b349b6d)" style="fill: none; stroke: #b0b0b0; stroke-width: 0.2; stroke-linecap: square"/>
     </g>
     <g id="line2d_48">
      <g>
       <use xlink:href="#me78f863667" x="34.240625" y="32.787692" style="stroke: #000000; stroke-width: 0.6"/>
      </g>
     </g>
    </g>
    <g id="ytick_14">
     <g id="line2d_49">
      <path d="M 34.240625 7.2 
L 341.140625 7.2 
" clip-path="url(#p538b349b6d)" style="fill: none; stroke: #b0b0b0; stroke-width: 0.2; stroke-linecap: square"/>
     </g>
     <g id="line2d_50">
      <g>
       <use xlink:href="#me78f863667" x="34.240625" y="7.2" style="stroke: #000000; stroke-width: 0.6"/>
      </g>
     </g>
    </g>
    <g id="text_18">
     <text style="font: 10px 'DejaVu Sans', 'Bitstream Vera Sans', 'Computer Modern Sans Serif', 'Lucida Grande', 'Verdana', 'Geneva', 'Lucid', 'Arial', 'Helvetica', 'Avant Garde', sans-serif; text-anchor: middle" x="14.798438" y="90.36" transform="rotate(-90 14.798438 90.36)">SEM, kJ/mol</text>
    </g>
   </g>
   <g id="line2d_51">
    <path d="M 327.190625 161.846323 
L 288.592138 137.997177 
L 258.652825 71.330487 
L 234.190625 154.111054 
L 213.50813 137.575342 
L 195.592138 111.383306 
L 179.789112 51.762956 
L 165.652825 58.919668 
L 152.864997 127.090985 
L 141.190625 82.202883 
L 130.451244 63.614228 
L 120.50813 70.306995 
L 111.251312 65.197406 
L 102.592138 68.032408 
L 94.458093 53.508637 
L 86.789112 56.359858 
L 79.534879 52.755475 
L 72.652825 56.104541 
L 66.106617 60.580724 
L 59.864997 77.843118 
L 53.900876 68.773075 
L 48.190625 61.26834 
" clip-path="url(#p538b349b6d)" style="fill: none; stroke: #ff00ff; stroke-width: 1.5; stroke-linecap: square"/>
    <defs>
     <path id="mbd1e58adf6" d="M 0 1.5 
C 0.397805 1.5 0.77937 1.341951 1.06066 1.06066 
C 1.341951 0.77937 1.5 0.397805 1.5 0 
C 1.5 -0.397805 1.341951 -0.77937 1.06066 -1.06066 
C 0.77937 -1.341951 0.397805 -1.5 0 -1.5 
C -0.397805 -1.5 -0.77937 -1.341951 -1.06066 -1.06066 
C -1.341951 -0.77937 -1.5 -0.397805 -1.5 0 
C -1.5 0.397805 -1.341951 0.77937 -1.06066 1.06066 
C -0.77937 1.341951 -0.397805 1.5 0 1.5 
z
" style="stroke: #ff00ff"/>
    </defs>
    <g clip-path="url(#p538b349b6d)">
     <use xlink:href="#mbd1e58adf6" x="327.190625" y="161.846323" style="fill: #ff00ff; stroke: #ff00ff"/>
     <use xlink:href="#mbd1e58adf6" x="288.592138" y="137.997177" style="fill: #ff00ff; stroke: #ff00ff"/>
     <use xlink:href="#mbd1e58adf6" x="258.652825" y="71.330487" style="fill: #ff00ff; stroke: #ff00ff"/>
     <use xlink:href="#mbd1e58adf6" x="234.190625" y="154.111054" style="fill: #ff00ff; stroke: #ff00ff"/>
     <use xlink:href="#mbd1e58adf6" x="213.50813" y="137.575342" style="fill: #ff00ff; stroke: #ff00ff"/>
     <use xlink:href="#mbd1e58adf6" x="195.592138" y="111.383306" style="fill: #ff00ff; stroke: #ff00ff"/>
     <use xlink:href="#mbd1e58adf6" x="179.789112" y="51.762956" style="fill: #ff00ff; stroke: #ff00ff"/>
     <use xlink:href="#mbd1e58adf6" x="165.652825" y="58.919668" style="fill: #ff00ff; stroke: #ff00ff"/>
     <use xlink:href="#mbd1e58adf6" x="152.864997" y="127.090985" style="fill: #ff00ff; stroke: #ff00ff"/>
     <use xlink:href="#mbd1e58adf6" x="141.190625" y="82.202883" style="fill: #ff00ff; stroke: #ff00ff"/>
     <use xlink:href="#mbd1e58adf6" x="130.451244" y="63.614228" style="fill: #ff00ff; stroke: #ff00ff"/>
     <use xlink:href="#mbd1e58adf6" x="120.50813" y="70.306995" style="fill: #ff00ff; stroke: #ff00ff"/>
     <use xlink:href="#mbd1e58adf6" x="111.251312" y="65.197406" style="fill: #ff00ff; stroke: #ff00ff"/>
     <use xlink:href="#mbd1e58adf6" x="102.592138" y="68.032408" style="fill: #ff00ff; stroke: #ff00ff"/>
     <use xlink:href="#mbd1e58adf6" x="94.458093" y="53.508637" style="fill: #ff00ff; stroke: #ff00ff"/>
     <use xlink:href="#mbd1e58adf6" x="86.789112" y="56.359858" style="fill: #ff00ff; stroke: #ff00ff"/>
     <use xlink:href="#mbd1e58adf6" x="79.534879" y="52.755475" style="fill: #ff00ff; stroke: #ff00ff"/>
     <use xlink:href="#mbd1e58adf6" x="72.652825" y="56.104541" style="fill: #ff00ff; stroke: #ff00ff"/>
     <use xlink:href="#mbd1e58adf6" x="66.106617" y="60.580724" style="fill: #ff00ff; stroke: #ff00ff"/>
     <use xlink:href="#mbd1e58adf6" x="59.864997" y="77.843118" style="fill: #ff00ff; stroke: #ff00ff"/>
     <use xlink:href="#mbd1e58adf6" x="53.900876" y="68.773075" style="fill: #ff00ff; stroke: #ff00ff"/>
     <use xlink:href="#mbd1e58adf6" x="48.190625" y="61.26834" style="fill: #ff00ff; stroke: #ff00ff"/>
    </g>
   </g>
   <g id="line2d_52">
    <path d="M 327.190625 161.142475 
L 288.592138 138.414434 
L 258.652825 105.403191 
L 234.190625 154.245795 
L 213.50813 138.962438 
L 195.592138 126.975839 
L 179.789112 125.901097 
L 165.652825 119.705482 
L 152.864997 136.97495 
L 141.190625 136.097876 
L 130.451244 126.704734 
L 120.50813 123.95783 
L 111.251312 103.103481 
L 102.592138 110.909884 
L 94.458093 127.605799 
L 86.789112 127.196029 
L 79.534879 112.02551 
L 72.652825 117.193336 
L 66.106617 117.438711 
L 59.864997 128.501008 
L 53.900876 118.362615 
L 48.190625 116.714842 
" clip-path="url(#p538b349b6d)" style="fill: none; stroke: #800080; stroke-width: 1.5; stroke-linecap: square"/>
    <defs>
     <path id="mf82f2b5fec" d="M 0 1.5 
C 0.397805 1.5 0.77937 1.341951 1.06066 1.06066 
C 1.341951 0.77937 1.5 0.397805 1.5 0 
C 1.5 -0.397805 1.341951 -0.77937 1.06066 -1.06066 
C 0.77937 -1.341951 0.397805 -1.5 0 -1.5 
C -0.397805 -1.5 -0.77937 -1.341951 -1.06066 -1.06066 
C -1.341951 -0.77937 -1.5 -0.397805 -1.5 0 
C -1.5 0.397805 -1.341951 0.77937 -1.06066 1.06066 
C -0.77937 1.341951 -0.397805 1.5 0 1.5 
z
" style="stroke: #800080"/>
    </defs>
    <g clip-path="url(#p538b349b6d)">
     <use xlink:href="#mf82f2b5fec" x="327.190625" y="161.142475" style="fill: #800080; stroke: #800080"/>
     <use xlink:href="#mf82f2b5fec" x="288.592138" y="138.414434" style="fill: #800080; stroke: #800080"/>
     <use xlink:href="#mf82f2b5fec" x="258.652825" y="105.403191" style="fill: #800080; stroke: #800080"/>
     <use xlink:href="#mf82f2b5fec" x="234.190625" y="154.245795" style="fill: #800080; stroke: #800080"/>
     <use xlink:href="#mf82f2b5fec" x="213.50813" y="138.962438" style="fill: #800080; stroke: #800080"/>
     <use xlink:href="#mf82f2b5fec" x="195.592138" y="126.975839" style="fill: #800080; stroke: #800080"/>
     <use xlink:href="#mf82f2b5fec" x="179.789112" y="125.901097" style="fill: #800080; stroke: #800080"/>
     <use xlink:href="#mf82f2b5fec" x="165.652825" y="119.705482" style="fill: #800080; stroke: #800080"/>
     <use xlink:href="#mf82f2b5fec" x="152.864997" y="136.97495" style="fill: #800080; stroke: #800080"/>
     <use xlink:href="#mf82f2b5fec" x="141.190625" y="136.097876" style="fill: #800080; stroke: #800080"/>
     <use xlink:href="#mf82f2b5fec" x="130.451244" y="126.704734" style="fill: #800080; stroke: #800080"/>
     <use xlink:href="#mf82f2b5fec" x="120.50813" y="123.95783" style="fill: #800080; stroke: #800080"/>
     <use xlink:href="#mf82f2b5fec" x="111.251312" y="103.103481" style="fill: #800080; stroke: #800080"/>
     <use xlink:href="#mf82f2b5fec" x="102.592138" y="110.909884" style="fill: #800080; stroke: #800080"/>
     <use xlink:href="#mf82f2b5fec" x="94.458093" y="127.605799" style="fill: #800080; stroke: #800080"/>
     <use xlink:href="#mf82f2b5fec" x="86.789112" y="127.196029" style="fill: #800080; stroke: #800080"/>
     <use xlink:href="#mf82f2b5fec" x="79.534879" y="112.02551" style="fill: #800080; stroke: #800080"/>
     <use xlink:href="#mf82f2b5fec" x="72.652825" y="117.193336" style="fill: #800080; stroke: #800080"/>
     <use xlink:href="#mf82f2b5fec" x="66.106617" y="117.438711" style="fill: #800080; stroke: #800080"/>
     <use xlink:href="#mf82f2b5fec" x="59.864997" y="128.501008" style="fill: #800080; stroke: #800080"/>
     <use xlink:href="#mf82f2b5fec" x="53.900876" y="118.362615" style="fill: #800080; stroke: #800080"/>
     <use xlink:href="#mf82f2b5fec" x="48.190625" y="116.714842" style="fill: #800080; stroke: #800080"/>
    </g>
   </g>
   <g id="line2d_53">
    <path d="M 327.190625 163.481661 
L 288.592138 151.035169 
L 258.652825 158.112028 
L 234.190625 158.700628 
L 213.50813 156.870184 
L 195.592138 153.261401 
L 179.789112 161.139608 
L 165.652825 157.238763 
L 152.864997 157.847843 
L 141.190625 156.165524 
L 130.451244 159.689356 
L 120.50813 158.446093 
L 111.251312 156.620036 
L 102.592138 137.962915 
L 94.458093 140.519352 
L 86.789112 141.35173 
L 79.534879 143.008193 
L 72.652825 144.212234 
L 66.106617 140.7706 
L 59.864997 147.036596 
L 53.900876 148.011456 
L 48.190625 144.298229 
" clip-path="url(#p538b349b6d)" style="fill: none; stroke: #0000ff; stroke-width: 1.5; stroke-linecap: square"/>
    <defs>
     <path id="mecb804e769" d="M 0 1.5 
C 0.397805 1.5 0.77937 1.341951 1.06066 1.06066 
C 1.341951 0.77937 1.5 0.397805 1.5 0 
C 1.5 -0.397805 1.341951 -0.77937 1.06066 -1.06066 
C 0.77937 -1.341951 0.397805 -1.5 0 -1.5 
C -0.397805 -1.5 -0.77937 -1.341951 -1.06066 -1.06066 
C -1.341951 -0.77937 -1.5 -0.397805 -1.5 0 
C -1.5 0.397805 -1.341951 0.77937 -1.06066 1.06066 
C -0.77937 1.341951 -0.397805 1.5 0 1.5 
z
" style="stroke: #0000ff"/>
    </defs>
    <g clip-path="url(#p538b349b6d)">
     <use xlink:href="#mecb804e769" x="327.190625" y="163.481661" style="fill: #0000ff; stroke: #0000ff"/>
     <use xlink:href="#mecb804e769" x="288.592138" y="151.035169" style="fill: #0000ff; stroke: #0000ff"/>
     <use xlink:href="#mecb804e769" x="258.652825" y="158.112028" style="fill: #0000ff; stroke: #0000ff"/>
     <use xlink:href="#mecb804e769" x="234.190625" y="158.700628" style="fill: #0000ff; stroke: #0000ff"/>
     <use xlink:href="#mecb804e769" x="213.50813" y="156.870184" style="fill: #0000ff; stroke: #0000ff"/>
     <use xlink:href="#mecb804e769" x="195.592138" y="153.261401" style="fill: #0000ff; stroke: #0000ff"/>
     <use xlink:href="#mecb804e769" x="179.789112" y="161.139608" style="fill: #0000ff; stroke: #0000ff"/>
     <use xlink:href="#mecb804e769" x="165.652825" y="157.238763" style="fill: #0000ff; stroke: #0000ff"/>
     <use xlink:href="#mecb804e769" x="152.864997" y="157.847843" style="fill: #0000ff; stroke: #0000ff"/>
     <use xlink:href="#mecb804e769" x="141.190625" y="156.165524" style="fill: #0000ff; stroke: #0000ff"/>
     <use xlink:href="#mecb804e769" x="130.451244" y="159.689356" style="fill: #0000ff; stroke: #0000ff"/>
     <use xlink:href="#mecb804e769" x="120.50813" y="158.446093" style="fill: #0000ff; stroke: #0000ff"/>
     <use xlink:href="#mecb804e769" x="111.251312" y="156.620036" style="fill: #0000ff; stroke: #0000ff"/>
     <use xlink:href="#mecb804e769" x="102.592138" y="137.962915" style="fill: #0000ff; stroke: #0000ff"/>
     <use xlink:href="#mecb804e769" x="94.458093" y="140.519352" style="fill: #0000ff; stroke: #0000ff"/>
     <use xlink:href="#mecb804e769" x="86.789112" y="141.35173" style="fill: #0000ff; stroke: #0000ff"/>
     <use xlink:href="#mecb804e769" x="79.534879" y="143.008193" style="fill: #0000ff; stroke: #0000ff"/>
     <use xlink:href="#mecb804e769" x="72.652825" y="144.212234" style="fill: #0000ff; stroke: #0000ff"/>
     <use xlink:href="#mecb804e769" x="66.106617" y="140.7706" style="fill: #0000ff; stroke: #0000ff"/>
     <use xlink:href="#mecb804e769" x="59.864997" y="147.036596" style="fill: #0000ff; stroke: #0000ff"/>
     <use xlink:href="#mecb804e769" x="53.900876" y="148.011456" style="fill: #0000ff; stroke: #0000ff"/>
     <use xlink:href="#mecb804e769" x="48.190625" y="144.298229" style="fill: #0000ff; stroke: #0000ff"/>
    </g>
   </g>
   <g id="line2d_54">
    <path d="M 327.190625 165.33812 
L 288.592138 152.57092 
L 258.652825 158.671129 
L 234.190625 159.677691 
L 213.50813 157.878496 
L 195.592138 155.10246 
L 179.789112 162.018129 
L 165.652825 158.08167 
L 152.864997 158.854369 
L 141.190625 157.744617 
L 130.451244 160.781208 
L 120.50813 159.66956 
L 111.251312 157.945342 
L 102.592138 155.355481 
L 94.458093 156.75484 
L 86.789112 156.270997 
L 79.534879 156.916211 
L 72.652825 156.905419 
L 66.106617 155.540559 
L 59.864997 158.011851 
L 53.900876 158.408641 
L 48.190625 157.828424 
" clip-path="url(#p538b349b6d)" style="fill: none; stroke: #000080; stroke-width: 1.5; stroke-linecap: square"/>
    <defs>
     <path id="m58f66568f3" d="M 0 1.5 
C 0.397805 1.5 0.77937 1.341951 1.06066 1.06066 
C 1.341951 0.77937 1.5 0.397805 1.5 0 
C 1.5 -0.397805 1.341951 -0.77937 1.06066 -1.06066 
C 0.77937 -1.341951 0.397805 -1.5 0 -1.5 
C -0.397805 -1.5 -0.77937 -1.341951 -1.06066 -1.06066 
C -1.341951 -0.77937 -1.5 -0.397805 -1.5 0 
C -1.5 0.397805 -1.341951 0.77937 -1.06066 1.06066 
C -0.77937 1.341951 -0.397805 1.5 0 1.5 
z
" style="stroke: #000080"/>
    </defs>
    <g clip-path="url(#p538b349b6d)">
     <use xlink:href="#m58f66568f3" x="327.190625" y="165.33812" style="fill: #000080; stroke: #000080"/>
     <use xlink:href="#m58f66568f3" x="288.592138" y="152.57092" style="fill: #000080; stroke: #000080"/>
     <use xlink:href="#m58f66568f3" x="258.652825" y="158.671129" style="fill: #000080; stroke: #000080"/>
     <use xlink:href="#m58f66568f3" x="234.190625" y="159.677691" style="fill: #000080; stroke: #000080"/>
     <use xlink:href="#m58f66568f3" x="213.50813" y="157.878496" style="fill: #000080; stroke: #000080"/>
     <use xlink:href="#m58f66568f3" x="195.592138" y="155.10246" style="fill: #000080; stroke: #000080"/>
     <use xlink:href="#m58f66568f3" x="179.789112" y="162.018129" style="fill: #000080; stroke: #000080"/>
     <use xlink:href="#m58f66568f3" x="165.652825" y="158.08167" style="fill: #000080; stroke: #000080"/>
     <use xlink:href="#m58f66568f3" x="152.864997" y="158.854369" style="fill: #000080; stroke: #000080"/>
     <use xlink:href="#m58f66568f3" x="141.190625" y="157.744617" style="fill: #000080; stroke: #000080"/>
     <use xlink:href="#m58f66568f3" x="130.451244" y="160.781208" style="fill: #000080; stroke: #000080"/>
     <use xlink:href="#m58f66568f3" x="120.50813" y="159.66956" style="fill: #000080; stroke: #000080"/>
     <use xlink:href="#m58f66568f3" x="111.251312" y="157.945342" style="fill: #000080; stroke: #000080"/>
     <use xlink:href="#m58f66568f3" x="102.592138" y="155.355481" style="fill: #000080; stroke: #000080"/>
     <use xlink:href="#m58f66568f3" x="94.458093" y="156.75484" style="fill: #000080; stroke: #000080"/>
     <use xlink:href="#m58f66568f3" x="86.789112" y="156.270997" style="fill: #000080; stroke: #000080"/>
     <use xlink:href="#m58f66568f3" x="79.534879" y="156.916211" style="fill: #000080; stroke: #000080"/>
     <use xlink:href="#m58f66568f3" x="72.652825" y="156.905419" style="fill: #000080; stroke: #000080"/>
     <use xlink:href="#m58f66568f3" x="66.106617" y="155.540559" style="fill: #000080; stroke: #000080"/>
     <use xlink:href="#m58f66568f3" x="59.864997" y="158.011851" style="fill: #000080; stroke: #000080"/>
     <use xlink:href="#m58f66568f3" x="53.900876" y="158.408641" style="fill: #000080; stroke: #000080"/>
     <use xlink:href="#m58f66568f3" x="48.190625" y="157.828424" style="fill: #000080; stroke: #000080"/>
    </g>
   </g>
   <g id="patch_3">
    <path d="M 34.240625 173.52 
L 34.240625 7.2 
" style="fill: none; stroke: #000000; stroke-width: 0.8; stroke-linejoin: miter; stroke-linecap: square"/>
   </g>
   <g id="patch_4">
    <path d="M 341.140625 173.52 
L 341.140625 7.2 
" style="fill: none; stroke: #000000; stroke-width: 0.8; stroke-linejoin: miter; stroke-linecap: square"/>
   </g>
   <g id="patch_5">
    <path d="M 34.240625 173.52 
L 341.140625 173.52 
" style="fill: none; stroke: #000000; stroke-width: 0.8; stroke-linejoin: miter; stroke-linecap: square"/>
   </g>
   <g id="patch_6">
    <path d="M 34.240625 7.2 
L 341.140625 7.2 
" style="fill: none; stroke: #000000; stroke-width: 0.8; stroke-linejoin: miter; stroke-linecap: square"/>
   </g>
   <g id="legend_1">
    <g id="patch_7">
     <path d="M 109.484375 45.1125 
L 334.140625 45.1125 
Q 336.140625 45.1125 336.140625 43.1125 
L 336.140625 14.2 
Q 336.140625 12.2 334.140625 12.2 
L 109.484375 12.2 
Q 107.484375 12.2 107.484375 14.2 
L 107.484375 43.1125 
Q 107.484375 45.1125 109.484375 45.1125 
z
" style="fill: #ffffff; opacity: 0.8; stroke: #cccccc; stroke-linejoin: miter"/>
    </g>
    <g id="line2d_55">
     <path d="M 111.484375 20.298438 
L 121.484375 20.298438 
L 131.484375 20.298438 
" style="fill: none; stroke: #ff00ff; stroke-width: 1.5; stroke-linecap: square"/>
     <g>
      <use xlink:href="#mbd1e58adf6" x="121.484375" y="20.298438" style="fill: #ff00ff; stroke: #ff00ff"/>
     </g>
    </g>
    <g id="text_19">
     <text style="font: 10px 'DejaVu Sans', 'Bitstream Vera Sans', 'Computer Modern Sans Serif', 'Lucida Grande', 'Verdana', 'Geneva', 'Lucid', 'Arial', 'Helvetica', 'Avant Garde', sans-serif; text-anchor: start" x="139.484375" y="23.798438" transform="rotate(-0 139.484375 23.798438)">MG_0.8, D489</text>
    </g>
    <g id="line2d_56">
     <path d="M 111.484375 35.254688 
L 121.484375 35.254688 
L 131.484375 35.254688 
" style="fill: none; stroke: #800080; stroke-width: 1.5; stroke-linecap: square"/>
     <g>
      <use xlink:href="#mf82f2b5fec" x="121.484375" y="35.254688" style="fill: #800080; stroke: #800080"/>
     </g>
    </g>
    <g id="text_20">
     <text style="font: 10px 'DejaVu Sans', 'Bitstream Vera Sans', 'Computer Modern Sans Serif', 'Lucida Grande', 'Verdana', 'Geneva', 'Lucid', 'Arial', 'Helvetica', 'Avant Garde', sans-serif; text-anchor: start" x="139.484375" y="38.754688" transform="rotate(-0 139.484375 38.754688)">MG_0.8, D580</text>
    </g>
    <g id="line2d_57">
     <path d="M 229.907813 20.298438 
L 239.907813 20.298438 
L 249.907813 20.298438 
" style="fill: none; stroke: #0000ff; stroke-width: 1.5; stroke-linecap: square"/>
     <g>
      <use xlink:href="#mecb804e769" x="239.907813" y="20.298438" style="fill: #0000ff; stroke: #0000ff"/>
     </g>
    </g>
    <g id="text_21">
     <text style="font: 10px 'DejaVu Sans', 'Bitstream Vera Sans', 'Computer Modern Sans Serif', 'Lucida Grande', 'Verdana', 'Geneva', 'Lucid', 'Arial', 'Helvetica', 'Avant Garde', sans-serif; text-anchor: start" x="257.907813" y="23.798438" transform="rotate(-0 257.907813 23.798438)">CA_0.85, D489</text>
    </g>
    <g id="line2d_58">
     <path d="M 229.907813 35.254688 
L 239.907813 35.254688 
L 249.907813 35.254688 
" style="fill: none; stroke: #000080; stroke-width: 1.5; stroke-linecap: square"/>
     <g>
      <use xlink:href="#m58f66568f3" x="239.907813" y="35.254688" style="fill: #000080; stroke: #000080"/>
     </g>
    </g>
    <g id="text_22">
     <text style="font: 10px 'DejaVu Sans', 'Bitstream Vera Sans', 'Computer Modern Sans Serif', 'Lucida Grande', 'Verdana', 'Geneva', 'Lucid', 'Arial', 'Helvetica', 'Avant Garde', sans-serif; text-anchor: start" x="257.907813" y="38.754688" transform="rotate(-0 257.907813 38.754688)">CA_0.85, D580</text>
    </g>
   </g>
  </g>
 </g>
 <defs>
  <clipPath id="p538b349b6d">
   <rect x="34.240625" y="7.2" width="306.9" height="166.32"/>
  </clipPath>
 </defs>
</svg>
